{
  "source": "C:\\Users\\Peter\\Desktop\\stuff\\MIUN\\quantitative_research\\video_compression\\videos\\HEVC_CLASS_B\\Kimono_1920x1080_24.y4m",
  "output": "C:\\Users\\Peter\\Desktop\\stuff\\MIUN\\quantitative_research\\video_compression\\compressed_videos\\HEVC_CLASS_B\\h264\\4\\Kimono_1920x1080_24_h264.mp4",
  "codec": "h264",
  "ok": "Input #0, yuv4mpegpipe, from 'C:\\Users\\Peter\\Desktop\\stuff\\MIUN\\quantitative_research\\video_compression\\videos\\HEVC_CLASS_B\\Kimono_1920x1080_24.y4m':\n  Duration: 00:00:10.00, start: 0.000000, bitrate: 597198 kb/s\n  Stream #0:0: Video: rawvideo (I420 / 0x30323449), yuv420p(progressive), 1920x1080, 24 fps, 24 tbr, 24 tbn\n[out#0/mp4 @ 000002503a01a140] Codec AVOption b:a (set bitrate (in bits/s)) has not been used for any stream. The most likely reason is either wrong type (e.g. a video option with no video streams) or that it is a private option of some decoder which was not actually used for any stream.\nStream mapping:\n  Stream #0:0 -> #0:0 (rawvideo (native) -> h264 (libx264))\nPress [q] to stop, [?] for help\n[libx264 @ 000002503a01c900] using cpu capabilities: MMX2 SSE2Fast SSSE3 SSE4.2 AVX FMA3 BMI2 AVX2\n[libx264 @ 000002503a01c900] profile High, level 5.0, 4:2:0, 8-bit\n[libx264 @ 000002503a01c900] 264 - core 165 r3222 b35605a - H.264/MPEG-4 AVC codec - Copyleft 2003-2025 - http://www.videolan.org/x264.html - options: cabac=1 ref=5 deblock=1:0:0 analyse=0x3:0x113 me=hex subme=8 psy=1 psy_rd=1.00:0.00 mixed_ref=1 me_range=16 chroma_me=1 trellis=2 8x8dct=1 cqm=0 deadzone=21,11 fast_pskip=1 chroma_qp_offset=-2 threads=18 lookahead_threads=3 sliced_threads=0 nr=0 decimate=1 interlaced=0 bluray_compat=0 constrained_intra=0 bframes=3 b_pyramid=2 b_adapt=1 b_bias=0 direct=3 weightb=1 open_gop=0 weightp=2 keyint=250 keyint_min=24 scenecut=40 intra_refresh=0 rc_lookahead=50 rc=cbr mbtree=1 bitrate=4000 ratetol=1.0 qcomp=0.60 qpmin=0 qpmax=69 qpstep=4 vbv_maxrate=4000 vbv_bufsize=4000 nal_hrd=none filler=0 ip_ratio=1.40 aq=1:1.00\nOutput #0, mp4, to 'C:\\Users\\Peter\\Desktop\\stuff\\MIUN\\quantitative_research\\video_compression\\compressed_videos\\HEVC_CLASS_B\\h264\\4\\Kimono_1920x1080_24_h264.mp4':\n  Metadata:\n    encoder         : Lavf62.3.100\n  Stream #0:0: Video: h264 (avc1 / 0x31637661), yuv420p(tv, progressive), 1920x1080, q=2-31, 4000 kb/s, 24 fps, 12288 tbn\n    Metadata:\n      encoder         : Lavc62.11.100 libx264\n    Side data:\n      cpb: bitrate max/min/avg: 4000000/0/4000000 buffer size: 4000000 vbv_delay: N/A\nframe=    0 fps=0.0 q=0.0 size=       0KiB time=N/A bitrate=N/A speed=N/A elapsed=0:00:00.51    \nframe=    5 fps=4.8 q=34.0 size=       0KiB time=00:00:00.12 bitrate=   3.1kbits/s speed=0.12x elapsed=0:00:01.03    \nframe=   25 fps= 16 q=32.0 size=     256KiB time=00:00:00.95 bitrate=2188.7kbits/s speed=0.611x elapsed=0:00:01.56    \nframe=   45 fps= 21 q=32.0 size=     512KiB time=00:00:01.79 bitrate=2341.2kbits/s speed=0.855x elapsed=0:00:02.09    \nframe=   69 fps= 26 q=32.0 size=    1024KiB time=00:00:02.79 bitrate=3005.0kbits/s speed=1.07x elapsed=0:00:02.61    \nframe=   89 fps= 28 q=32.0 size=    1280KiB time=00:00:03.62 bitrate=2892.7kbits/s speed=1.16x elapsed=0:00:03.13    \nframe=  109 fps= 30 q=31.0 size=    1792KiB time=00:00:04.45 bitrate=3292.8kbits/s speed=1.22x elapsed=0:00:03.64    \nframe=  133 fps= 32 q=31.0 size=    2048KiB time=00:00:05.45 bitrate=3073.8kbits/s speed=1.31x elapsed=0:00:04.16    \nframe=  158 fps= 33 q=29.0 size=    2560KiB time=00:00:06.45 bitrate=3247.3kbits/s speed=1.37x elapsed=0:00:04.72    \nframe=  189 fps= 36 q=28.0 size=    3072KiB time=00:00:07.70 bitrate=3264.8kbits/s speed=1.46x elapsed=0:00:05.26    \nframe=  213 fps= 37 q=26.0 size=    3328KiB time=00:00:08.79 bitrate=3101.0kbits/s speed=1.52x elapsed=0:00:05.80    \nframe=  237 fps= 37 q=-1.0 size=    3584KiB time=00:00:09.79 bitrate=2998.5kbits/s speed=1.54x elapsed=0:00:06.35    \n[mp4 @ 000002503a01a280] Starting second pass: moving the moov atom to the beginning of the file\n[out#0/mp4 @ 000002503a01a140] video:3733KiB audio:0KiB subtitle:0KiB other streams:0KiB global headers:0KiB muxing overhead: 0.098791%\nframe=  240 fps= 37 q=-1.0 Lsize=    3736KiB time=00:00:09.91 bitrate=3086.5kbits/s speed=1.55x elapsed=0:00:06.40    \n[libx264 @ 000002503a01c900] frame I:2     Avg QP:26.57  size:119776\n[libx264 @ 000002503a01c900] frame P:60    Avg QP:28.49  size: 34412\n[libx264 @ 000002503a01c900] frame B:178   Avg QP:32.14  size:  8523\n[libx264 @ 000002503a01c900] consecutive B-frames:  0.8%  0.0%  2.5% 96.7%\n[libx264 @ 000002503a01c900] mb I  I16..4: 14.5% 76.7%  8.8%\n[libx264 @ 000002503a01c900] mb P  I16..4:  0.3%  4.6%  0.1%  P16..4: 45.6% 16.3%  7.6%  0.0%  0.0%    skip:25.6%\n[libx264 @ 000002503a01c900] mb B  I16..4:  0.0%  0.1%  0.0%  B16..8: 48.2%  3.9%  0.6%  direct: 1.3%  skip:45.8%  L0:42.0% L1:55.5% BI: 2.4%\n[libx264 @ 000002503a01c900] 8x8 transform intra:86.1% inter:84.8%\n[libx264 @ 000002503a01c900] direct mvs  spatial:94.4% temporal:5.6%\n[libx264 @ 000002503a01c900] coded y,uvDC,uvAC intra: 73.8% 64.7% 24.3% inter: 10.7% 8.8% 0.5%\n[libx264 @ 000002503a01c900] i16 v,h,dc,p: 27% 27%  5% 41%\n[libx264 @ 000002503a01c900] i8 v,h,dc,ddl,ddr,vr,hd,vl,hu:  7%  5%  2% 11% 18% 15% 17% 12% 14%\n[libx264 @ 000002503a01c900] i4 v,h,dc,ddl,ddr,vr,hd,vl,hu:  6%  4%  1% 12% 18% 14% 17% 11% 16%\n[libx264 @ 000002503a01c900] i8c dc,h,v,p: 47% 25% 14% 14%\n[libx264 @ 000002503a01c900] Weighted P-Frames: Y:0.0% UV:0.0%\n[libx264 @ 000002503a01c900] ref P L0: 60.4% 17.7% 13.6%  4.5%  3.8%\n[libx264 @ 000002503a01c900] ref B L0: 91.4%  6.2%  1.9%  0.5%\n[libx264 @ 000002503a01c900] ref B L1: 98.0%  2.0%\n[libx264 @ 000002503a01c900] kb/s:3057.16\n",
  "seconds": 6.516871452331543,
  "probe_out": {}
}